<svg width="40" height="40" viewBox="0 0 40 40" fill="none" xmlns="http://www.w3.org/2000/svg">
<path fill-rule="evenodd" clip-rule="evenodd" d="M10 17H4V20H10V17ZM4 15C2.89543 15 2 15.8954 2 17V20C2 21.1046 2.89543 22 4 22H10C11.1046 22 12 21.1046 12 20V17C12 15.8954 11.1046 15 10 15H4Z" fill="white"/>
<path fill-rule="evenodd" clip-rule="evenodd" d="M36 17H30V20H36V17ZM30 15C28.8954 15 28 15.8954 28 17V20C28 21.1046 28.8954 22 30 22H36C37.1046 22 38 21.1046 38 20V17C38 15.8954 37.1046 15 36 15H30Z" fill="white"/>
<path fill-rule="evenodd" clip-rule="evenodd" d="M23 26.9572L21 29.7419L22.7949 32.2499L20.6282 34.4595L21.6282 36.8273L21.1045 38H37C38.6569 38 40 36.6569 40 35V27C40 25.3431 38.6569 24 37 24H22.1511L23 26.9572ZM24.806 26L25.1897 27.3368L23.4609 29.744L25.3985 32.4514L22.9889 34.9086L23.4499 36H37C37.5523 36 38 35.5523 38 35V27C38 26.4477 37.5523 26 37 26H24.806ZM19.5439 38L19.6667 37.0868L17.5769 34.3202L19.3333 32.3892L17.3718 29.7618L19 26.9572L17.8069 24H3C1.34315 24 0 25.3431 0 27V35C0 36.6569 1.34315 38 3 38H19.5439ZM16.3393 36H3C2.44772 36 2 35.5523 2 35V27C2 26.4477 2.44772 26 3 26H16.4572L16.7794 26.7987L14.979 29.9L16.7438 32.2638L14.981 34.2017L16.3393 36Z" fill="white"/>
<path fill-rule="evenodd" clip-rule="evenodd" d="M12.7526 3.34151C13.1163 3.75715 13.0741 4.38891 12.6585 4.75259L10.6614 6.50001H29.3386L27.3415 4.75259C26.9259 4.38891 26.8837 3.75715 27.2474 3.34151C27.6111 2.92587 28.2429 2.88375 28.6585 3.24744L32.6585 6.74744C32.8755 6.93733 33 7.21165 33 7.50001C33 7.78838 32.8755 8.0627 32.6585 8.25259L28.6585 11.7526C28.2429 12.1163 27.6111 12.0742 27.2474 11.6585C26.8837 11.2429 26.9259 10.6111 27.3415 10.2474L29.3386 8.50001H10.6614L12.6585 10.2474C13.0741 10.6111 13.1163 11.2429 12.7526 11.6585C12.3889 12.0742 11.7571 12.1163 11.3415 11.7526L7.3415 8.25259C7.12448 8.0627 7 7.78838 7 7.50001C7 7.21165 7.12448 6.93733 7.3415 6.74744L11.3415 3.24744C11.7571 2.88375 12.3889 2.92587 12.7526 3.34151Z" fill="white"/>
<path d="M19.4644 13.016C19.4808 13.2917 19.7176 13.5002 19.9938 13.5C19.9959 13.5 19.9979 13.5 20 13.5C20.0021 13.5 20.0041 13.5 20.0062 13.5C20.2823 13.5002 20.5192 13.2917 20.5356 13.016C20.552 12.7404 20.3418 12.5022 20.0657 12.5002C20.0438 12.5001 20.0219 12.5 20 12.5C19.9781 12.5 19.9562 12.5001 19.9343 12.5002C19.6582 12.5022 19.4479 12.7404 19.4644 13.016Z" fill="white"/>
<path d="M17.3588 13.3808C17.4347 13.6464 17.7112 13.7987 17.9802 13.7364C17.986 13.7351 17.9918 13.7337 17.9976 13.7324C18.2667 13.6706 18.4491 13.4128 18.4016 13.1408C18.3541 12.8687 18.0947 12.6856 17.8253 12.7461C17.785 12.7551 17.745 12.7643 17.7052 12.7738C17.4365 12.8373 17.283 13.1153 17.3588 13.3808Z" fill="white"/>
<path d="M21.5984 13.1408C21.5509 13.4128 21.7332 13.6706 22.0024 13.7324C22.0082 13.7337 22.014 13.7351 22.0197 13.7364C22.2888 13.7987 22.5653 13.6464 22.6411 13.3808C22.717 13.1153 22.5635 12.8373 22.2948 12.7738C22.255 12.7643 22.2149 12.7551 22.1747 12.7461C21.9052 12.6856 21.6459 12.8687 21.5984 13.1408Z" fill="white"/>
<path d="M23.6544 13.7255C23.5529 13.9823 23.6794 14.2717 23.9312 14.3849C23.9387 14.3883 23.9462 14.3917 23.9536 14.395C24.2052 14.5088 24.5057 14.4118 24.6309 14.1656C24.756 13.9194 24.6583 13.6174 24.4071 13.5027C24.3716 13.4865 24.3356 13.4703 24.2992 13.4541C24.0469 13.3418 23.7559 13.4687 23.6544 13.7255Z" fill="white"/>
<path d="M15.3691 14.1656C15.4942 14.4118 15.7948 14.5088 16.0464 14.395C16.0538 14.3917 16.0613 14.3883 16.0688 14.3849C16.3206 14.2717 16.4471 13.9823 16.3456 13.7255C16.2441 13.4687 15.9531 13.3418 15.7008 13.4541C15.6644 13.4703 15.6284 13.4865 15.5929 13.5027C15.3417 13.6174 15.244 13.9194 15.3691 14.1656Z" fill="white"/>
<path d="M25.4895 14.8065C25.3795 14.978 25.4304 15.2049 25.5962 15.3234C25.6302 15.3477 25.6554 15.3663 25.6715 15.3784L25.6887 15.3914L25.6924 15.3942C25.9096 15.5641 26.2237 15.5255 26.3936 15.3084C26.5637 15.0909 26.525 14.7759 26.3075 14.6057L26.3066 14.6051L26.3043 14.6032L26.2968 14.5975L26.2711 14.5781C26.2493 14.5617 26.218 14.5386 26.1777 14.5098C25.9893 14.3752 25.7289 14.4333 25.6039 14.6282L25.4895 14.8065Z" fill="white"/>
<path d="M13.6064 15.3084C13.4362 15.0909 13.4744 14.7763 13.6919 14.6062L13.6934 14.6051L13.6957 14.6032L13.7032 14.5975L13.7288 14.5781C13.7507 14.5617 13.782 14.5386 13.8223 14.5098C14.0107 14.3752 14.2711 14.4333 14.3961 14.6282L14.5104 14.8065C14.6204 14.978 14.5696 15.2049 14.4038 15.3234C14.3698 15.3477 14.3445 15.3663 14.3284 15.3784L14.3112 15.3914L14.3075 15.3942C14.0903 15.5641 13.7763 15.5255 13.6064 15.3084Z" fill="white"/>
<path d="M14.1644 18.5267L14.1408 18.5202L14.1335 18.5182C13.8674 18.4445 13.5919 18.6005 13.5182 18.8666C13.4445 19.1327 13.6013 19.4085 13.8674 19.4822L13.8762 19.4846L13.9022 19.4917C13.9249 19.4978 13.9581 19.5068 14.0011 19.5182C14.2034 19.572 14.4096 19.4487 14.4609 19.2457L14.5232 18.9993C14.5728 18.8029 14.4538 18.6038 14.258 18.5518C14.2169 18.5409 14.1854 18.5324 14.1644 18.5267Z" fill="white"/>
<path d="M26.1335 19.4819C26.3997 19.4082 26.5557 19.1327 26.4819 18.8666C26.4082 18.6005 26.1325 18.4446 25.8664 18.5183L25.8594 18.5202L25.8358 18.5267C25.8148 18.5324 25.7833 18.5409 25.7422 18.5518C25.5464 18.6038 25.4273 18.8029 25.477 18.9993L25.5393 19.2457C25.5906 19.4487 25.7968 19.572 25.9991 19.5182C26.042 19.5068 26.0753 19.4978 26.0979 19.4917L26.124 19.4846L26.1335 19.4819Z" fill="white"/>
<path d="M23.5267 19.575C23.5801 19.8459 23.8431 20.0225 24.1133 19.9654C24.1229 19.9634 24.1325 19.9614 24.1421 19.9593C24.4122 19.902 24.5813 19.6341 24.5205 19.3647C24.4598 19.0953 24.2093 18.9228 23.9392 18.9801C23.6691 19.0375 23.4733 19.3041 23.5267 19.575Z" fill="white"/>
<path d="M15.4796 19.3647C15.4189 19.6341 15.588 19.902 15.8581 19.9593C15.8677 19.9614 15.8773 19.9634 15.8869 19.9654C16.157 20.0225 16.42 19.8459 16.4735 19.575C16.5269 19.3041 16.3311 19.0375 16.061 18.9801C15.7909 18.9228 15.5404 19.0953 15.4796 19.3647Z" fill="white"/>
<path d="M17.4741 19.7545C17.4296 20.027 17.6141 20.286 17.8875 20.3252C17.9003 20.327 17.913 20.3289 17.9258 20.3307C18.1992 20.3694 18.448 20.1715 18.4804 19.8973C18.5126 19.6246 18.319 19.3766 18.0472 19.3379C17.7753 19.2991 17.5183 19.4835 17.4741 19.7545Z" fill="white"/>
<path d="M21.5198 19.8973C21.5521 20.1715 21.8009 20.3694 22.0744 20.3307C22.0871 20.3289 22.0999 20.327 22.1127 20.3252C22.386 20.286 22.5706 20.027 22.5261 19.7545C22.4819 19.4835 22.2248 19.2991 21.953 19.3379C21.6811 19.3766 21.4876 19.6246 21.5198 19.8973Z" fill="white"/>
<path d="M19.4926 19.9866C19.4787 20.2624 19.6911 20.499 19.9672 20.5C19.9782 20.5001 19.9891 20.5001 20.0001 20.5001C20.011 20.5001 20.022 20.5001 20.033 20.5C20.3091 20.499 20.5214 20.2624 20.5075 19.9866L20.5067 19.9691C20.4932 19.703 20.2666 19.5001 20.0001 19.5001C19.7336 19.5001 19.5069 19.703 19.4935 19.9691L19.4926 19.9866Z" fill="white"/>
<path d="M19.9999 16.5C19.7317 16.5 19.5046 16.2942 19.4925 16.0263L19.4919 16.0119C19.4794 15.7361 19.693 15.5008 19.9692 15.5C19.9794 15.5 19.9897 15.5 19.9999 15.5C20.0101 15.5 20.0204 15.5 20.0306 15.5C20.3067 15.5008 20.5203 15.7361 20.5079 16.0119L20.5072 16.0263C20.4951 16.2942 20.2681 16.5 19.9999 16.5Z" fill="white"/>
<path d="M22.5279 16.2326C22.4847 16.5034 22.2309 16.689 21.9592 16.6518C21.6876 16.6145 21.4905 16.3676 21.5209 16.0951C21.5515 15.8206 21.799 15.6207 22.0726 15.658C22.0859 15.6598 22.0992 15.6616 22.1124 15.6634C22.386 15.7012 22.5714 15.9599 22.5279 16.2326Z" fill="white"/>
<path d="M18.4789 16.0951C18.5093 16.3676 18.3122 16.6145 18.0406 16.6518C17.7689 16.689 17.5151 16.5034 17.4719 16.2326C17.4284 15.9599 17.6138 15.7012 17.8874 15.6634C17.9006 15.6616 17.9139 15.6598 17.9271 15.658C18.2008 15.6207 18.4483 15.8206 18.4789 16.0951Z" fill="white"/>
<path d="M24.5237 16.6231C24.4617 16.8922 24.2118 17.0638 23.9418 17.0058C23.6718 16.9477 23.4754 16.681 23.5289 16.4101C23.5824 16.1392 23.8455 15.9626 24.1155 16.0203C24.1263 16.0226 24.1371 16.0249 24.1479 16.0272C24.4178 16.0852 24.5857 16.354 24.5237 16.6231Z" fill="white"/>
<path d="M16.4709 16.4101C16.5244 16.681 16.328 16.9477 16.058 17.0058C15.788 17.0638 15.538 16.8922 15.4761 16.6231C15.4141 16.354 15.5819 16.0852 15.8519 16.0272C15.8627 16.0249 15.8734 16.0226 15.8842 16.0203C16.1543 15.9626 16.4174 16.1392 16.4709 16.4101Z" fill="white"/>
<path d="M25.737 17.4452C25.5425 17.3909 25.4257 17.1915 25.4771 16.9962L25.5417 16.7505C25.5951 16.5474 25.8032 16.4255 26.0056 16.4819C26.0485 16.4939 26.0817 16.5033 26.1044 16.5098L26.1305 16.5173L26.1374 16.5193L26.1394 16.5198C26.4044 16.5974 26.5573 16.8753 26.4798 17.1404C26.4023 17.4054 26.1246 17.5574 25.8596 17.4799L25.8581 17.4795L25.8526 17.4779L25.8295 17.4712C25.8088 17.4653 25.7777 17.4565 25.737 17.4452Z" fill="white"/>
<path d="M14.1416 17.4795L14.1471 17.4779L14.1703 17.4712C14.191 17.4653 14.2221 17.4565 14.2628 17.4452C14.4572 17.3909 14.574 17.1915 14.5227 16.9962L14.4581 16.7505C14.4047 16.5474 14.1965 16.4255 13.9942 16.4819C13.9513 16.4939 13.9181 16.5033 13.8954 16.5098L13.8693 16.5173L13.8623 16.5193C13.5973 16.5968 13.4425 16.8753 13.52 17.1404C13.5975 17.4054 13.8766 17.557 14.1416 17.4795Z" fill="white"/>
<path d="M19.4705 22.9591C19.4955 22.6924 19.7321 22.5 20 22.5C20.2678 22.5 20.5044 22.6924 20.5294 22.9591L20.5309 22.9741C20.5567 23.249 20.3546 23.4956 20.0785 23.4994C20.0523 23.4998 20.0261 23.5 20 23.5C19.9738 23.5 19.9477 23.4998 19.9214 23.4994C19.6453 23.4956 19.4433 23.249 19.4691 22.9741L19.4705 22.9591Z" fill="white"/>
<path d="M17.3955 22.5138C17.4809 22.2512 17.7627 22.1088 18.0285 22.1838C18.0348 22.1855 18.0411 22.1873 18.0474 22.1891C18.3133 22.2636 18.4818 22.531 18.4201 22.8001C18.3584 23.0693 18.0898 23.2382 17.8236 23.1648C17.7887 23.1551 17.7537 23.1453 17.7189 23.1354C17.4534 23.0596 17.31 22.7764 17.3955 22.5138Z" fill="white"/>
<path d="M21.5798 22.8001C21.5181 22.531 21.6866 22.2636 21.9525 22.1891C21.9588 22.1873 21.9651 22.1855 21.9714 22.1838C22.2372 22.1088 22.519 22.2512 22.6045 22.5138C22.6899 22.7764 22.5466 23.0596 22.281 23.1354C22.2462 23.1453 22.2112 23.1551 22.1763 23.1648C21.9101 23.2382 21.6415 23.0693 21.5798 22.8001Z" fill="white"/>
<path d="M15.4194 21.7276C15.5357 21.4771 15.8327 21.369 16.086 21.479C16.0972 21.4838 16.1084 21.4887 16.1196 21.4935C16.3731 21.603 16.498 21.8935 16.3954 22.1498C16.2928 22.4062 16.0016 22.5314 15.7479 22.4222C15.72 22.4102 15.6924 22.3983 15.6649 22.3863C15.4117 22.276 15.3032 21.9781 15.4194 21.7276Z" fill="white"/>
<path d="M23.6045 22.1498C23.5019 21.8935 23.6268 21.603 23.8803 21.4935C23.8915 21.4887 23.9027 21.4838 23.9139 21.479C24.1672 21.369 24.4642 21.4771 24.5805 21.7276C24.6967 21.9781 24.5882 22.276 24.335 22.3863C24.3075 22.3983 24.2799 22.4102 24.252 22.4222C23.9984 22.5314 23.7071 22.4062 23.6045 22.1498Z" fill="white"/>
<path d="M13.5684 20.7475C13.429 20.9859 13.5091 21.2922 13.7475 21.4316L13.7505 21.4333L13.7575 21.4374L13.783 21.452C13.8051 21.4647 13.8371 21.4829 13.8785 21.506C14.0724 21.6143 14.3161 21.5383 14.4197 21.3419L14.5222 21.1478C14.6197 20.963 14.5485 20.7348 14.366 20.6329C14.3278 20.6115 14.2988 20.595 14.2796 20.5841L14.2583 20.5718L14.2534 20.569L14.2523 20.5683C14.014 20.429 13.7078 20.5092 13.5684 20.7475Z" fill="white"/>
<path d="M25.4778 21.1478C25.3803 20.963 25.4514 20.7348 25.6339 20.6329C25.6721 20.6115 25.7011 20.595 25.7203 20.5841L25.7416 20.5718L25.7465 20.569L25.7476 20.5683C25.9859 20.429 26.2921 20.5092 26.4315 20.7475C26.5709 20.9859 26.4898 21.2928 26.2514 21.4322L26.2494 21.4333L26.2424 21.4374L26.2169 21.452C26.1949 21.4647 26.1628 21.4829 26.1214 21.506C25.9275 21.6143 25.6838 21.5383 25.5802 21.3419L25.4778 21.1478Z" fill="white"/>
</svg>
