<svg width="48" height="48" viewBox="0 0 48 48" fill="none" xmlns="http://www.w3.org/2000/svg">
<path fill-rule="evenodd" clip-rule="evenodd" d="M34.2148 14.9691V17.3996C34.2148 20.3662 35.8103 23.0579 38.3958 24.4831C40.9805 23.0571 42.576 20.3663 42.576 17.3996L42.5761 14.9691L38.3959 13.3453L34.2148 14.9691ZM40.6208 16.7924C40.8127 16.5997 41.1253 16.5997 41.3179 16.7924C41.5107 16.9851 41.5106 17.2968 41.3179 17.4895L37.7441 21.0651C37.6516 21.1576 37.5257 21.2098 37.3948 21.2098C37.2646 21.2098 37.1387 21.1576 37.0461 21.0651L35.4721 19.491C35.2794 19.2983 35.2793 18.9857 35.4721 18.793C35.6648 18.6011 35.9773 18.6012 36.1692 18.793L37.3948 20.0185L40.6208 16.7924Z" fill="white"/>
<path fill-rule="evenodd" clip-rule="evenodd" d="M43.5623 17.3996C43.5623 20.8236 41.6686 23.9195 38.6198 25.4807C38.5497 25.5167 38.4725 25.5347 38.3955 25.5347C38.3184 25.5347 38.2413 25.5167 38.1702 25.4807C35.1222 23.9203 33.2278 20.8235 33.2278 17.3996L33.2278 14.6317C33.2278 14.4287 33.3528 14.2454 33.543 14.1718L38.2165 12.3562C38.3312 12.3116 38.4588 12.3116 38.5736 12.3562L43.247 14.1717C43.4372 14.2454 43.5622 14.4287 43.5622 14.6317L43.5623 17.3996ZM32.2352 15.3536L32.2344 17.3987C32.2344 17.8993 32.2712 18.3934 32.3423 18.8784C32.346 18.8964 32.3487 18.9149 32.3504 18.9336C32.8333 22.1057 34.7977 24.8705 37.7171 26.3646L38.3946 26.7123L39.072 26.3654C42.4539 24.6346 44.5547 21.1987 44.5547 17.3996L44.5548 13.6143L38.3937 11.2197L32.2344 13.6134L32.2352 15.3536Z" fill="white"/>
<path fill-rule="evenodd" clip-rule="evenodd" d="M25.1855 15.847L25.1856 18.4856H31.3011C31.2662 18.127 31.2481 17.7645 31.2481 17.3988V15.847H25.1855Z" fill="white"/>
<path fill-rule="evenodd" clip-rule="evenodd" d="M17.1479 15.847V18.4856H24.1988L24.1989 15.847H17.1479Z" fill="white"/>
<path fill-rule="evenodd" clip-rule="evenodd" d="M9.11133 15.847L9.1114 18.4856H16.1614V15.847H9.11133Z" fill="white"/>
<path fill-rule="evenodd" clip-rule="evenodd" d="M8.12481 15.847H3.93008C3.66289 15.847 3.44531 16.0645 3.44531 16.3317V18.4856H8.12478L8.12481 15.847Z" fill="white"/>
<path fill-rule="evenodd" clip-rule="evenodd" d="M12.1441 19.4722H3.44531V22.1108H12.1439L12.1441 19.4722Z" fill="white"/>
<path fill-rule="evenodd" clip-rule="evenodd" d="M8.12478 23.0974H3.44531V25.7369H8.12478V23.0974Z" fill="white"/>
<path fill-rule="evenodd" clip-rule="evenodd" d="M12.144 26.7234H3.44531V29.5298H12.1439L12.144 26.7234Z" fill="white"/>
<path fill-rule="evenodd" clip-rule="evenodd" d="M7.3009 30.5165H3.44531V33.1551H7.3009V30.5165Z" fill="white"/>
<path fill-rule="evenodd" clip-rule="evenodd" d="M7.7942 34.1434L3.44531 34.1417V36.2956C3.44531 36.5636 3.66284 36.7803 3.93005 36.7803H12.1439L12.144 34.1417L7.7942 34.1434Z" fill="white"/>
<path fill-rule="evenodd" clip-rule="evenodd" d="M16.1615 30.5165H8.2876L8.28767 33.1551H16.1615V30.5165Z" fill="white"/>
<path fill-rule="evenodd" clip-rule="evenodd" d="M13.1304 26.7234L13.1304 29.5298H20.1803L20.1804 26.7234H13.1304Z" fill="white"/>
<path fill-rule="evenodd" clip-rule="evenodd" d="M16.1614 23.0974H9.11133L9.1114 25.7369H16.1614V23.0974Z" fill="white"/>
<path fill-rule="evenodd" clip-rule="evenodd" d="M20.1804 19.4722H13.1304L13.1304 22.1108H20.1803L20.1804 19.4722Z" fill="white"/>
<path fill-rule="evenodd" clip-rule="evenodd" d="M28.217 19.4722H21.167L21.1671 22.1108H28.217V19.4722Z" fill="white"/>
<path fill-rule="evenodd" clip-rule="evenodd" d="M29.2036 19.4722V22.1108H32.2943C31.9031 21.2775 31.615 20.3921 31.4414 19.4722H29.2036Z" fill="white"/>
<path fill-rule="evenodd" clip-rule="evenodd" d="M31.1043 23.0974H25.1855L25.1856 25.7369H31.1042L31.1043 23.0974Z" fill="white"/>
<path fill-rule="evenodd" clip-rule="evenodd" d="M24.1989 23.0974H17.1479V25.7369H24.1988L24.1989 23.0974Z" fill="white"/>
<path fill-rule="evenodd" clip-rule="evenodd" d="M21.167 26.7234L21.1671 29.5298H28.217V26.7234H21.167Z" fill="white"/>
<path fill-rule="evenodd" clip-rule="evenodd" d="M24.1989 30.5165H17.1479V33.1551H24.1988L24.1989 30.5165Z" fill="white"/>
<path fill-rule="evenodd" clip-rule="evenodd" d="M20.1804 34.1417L16.6545 34.1434L13.1304 34.1417L13.1304 36.7803H20.1803L20.1804 34.1417Z" fill="white"/>
<path fill-rule="evenodd" clip-rule="evenodd" d="M28.217 34.1417L24.6921 34.1434L21.167 34.1417L21.1671 36.7803H28.217V34.1417Z" fill="white"/>
<path fill-rule="evenodd" clip-rule="evenodd" d="M33.0594 30.5165H25.1855L25.1856 33.1551H33.0594V30.5165Z" fill="white"/>
<path fill-rule="evenodd" clip-rule="evenodd" d="M33.5525 34.1434L29.2036 34.1417V36.7803H37.4175C37.6847 36.7803 37.9022 36.5636 37.9022 36.2956L37.9022 34.1417L33.5525 34.1434Z" fill="white"/>
<path fill-rule="evenodd" clip-rule="evenodd" d="M34.0459 30.5165V33.1551H37.9023V30.5165H34.0459Z" fill="white"/>
<path fill-rule="evenodd" clip-rule="evenodd" d="M36.3609 26.7234H29.2036V29.5299H37.9023L37.9023 27.5688L37.2677 27.2424C36.9551 27.0825 36.6529 26.9089 36.3609 26.7234Z" fill="white"/>
<path fill-rule="evenodd" clip-rule="evenodd" d="M32.0908 23.0974L32.0909 25.7369H35.0366C34.1579 24.9737 33.4121 24.0821 32.8207 23.0974H32.0908Z" fill="white"/>
</svg>
