<svg width="40" height="40" viewBox="0 0 40 40" fill="none" xmlns="http://www.w3.org/2000/svg">
<path d="M9.48768 21.0526C9.47839 20.7039 9.47369 20.3529 9.47369 20C9.47369 19.6471 9.47839 19.2961 9.48768 18.9474C9.54289 16.876 9.76021 14.8828 10.1177 13.0184C10.2714 12.2171 10.4509 11.4396 10.6547 10.6899L10.6622 10.6622C11.1155 9.00022 11.6876 7.47535 12.3596 6.13144C14.1299 2.59074 16.7704 0 20 0V2.10526C17.9974 2.10526 15.901 3.75604 14.2426 7.07294C13.7844 7.98937 13.373 9.01011 13.0184 10.1177C12.8025 10.7922 12.6076 11.4988 12.4361 12.2337C12.4233 12.2884 12.4107 12.3432 12.3982 12.3982C11.9426 14.4017 11.6595 16.6109 11.5937 18.9474L11.5927 18.985C11.5836 19.3208 11.5789 19.6592 11.5789 20C11.5789 20.3535 11.5839 20.7045 11.5937 21.0526C11.7254 25.7308 12.7283 29.8985 14.2426 32.9271C15.901 36.244 17.9974 37.8947 20 37.8947V40C16.7704 40 14.1299 37.4093 12.3596 33.8686C10.6764 30.5022 9.61956 26.0004 9.48768 21.0526Z" fill="white"/>
<path d="M14.6706 11.9704C16.0315 11.7649 17.4638 11.6355 18.9474 11.5937C19.2955 11.5839 19.6465 11.5789 20 11.5789C20.3535 11.5789 20.7045 11.5839 21.0526 11.5937C25.7308 11.7254 29.8985 12.7283 32.9271 14.2426C36.244 15.901 37.8947 17.9974 37.8947 20H40C40 16.7704 37.4093 14.1299 33.8686 12.3596C30.5022 10.6764 26.0004 9.61955 21.0526 9.48768C20.7039 9.47838 20.3529 9.47368 20 9.47368C19.6523 9.47368 19.3065 9.47825 18.9628 9.48727L18.9474 9.48768C17.7254 9.52025 16.5307 9.60924 15.3736 9.75014C15.1141 10.4418 14.8783 11.184 14.6706 11.9704Z" fill="white"/>
<path d="M8.30271 11.4195C7.53649 11.7057 6.81084 12.0199 6.13144 12.3596C2.59074 14.1299 0 16.7704 0 20C0 22.0575 1.05145 23.8758 2.73012 25.3824L1.3271 28.1754L9.51853 28.2838L4.54131 21.777L3.71722 23.4175C2.64163 22.3135 2.10526 21.1415 2.10526 20C2.10526 17.9974 3.75604 15.901 7.07294 14.2426C7.31833 14.1199 7.57121 14.0006 7.83123 13.8848C7.96202 13.043 8.11958 12.2199 8.30271 11.4195Z" fill="white"/>
<path d="M20 30.5263C19.6471 30.5263 19.2961 30.5216 18.9474 30.5123C17.7254 30.4798 16.5307 30.3908 15.3736 30.2499C15.1141 29.5582 14.8783 28.816 14.6706 28.0296C16.0315 28.2351 17.4638 28.3645 18.9474 28.4063C19.2955 28.4161 19.6465 28.4211 20 28.4211C20.3535 28.4211 20.7045 28.4161 21.0526 28.4063C23.3891 28.3405 25.5983 28.0574 27.6018 27.6018C28.3562 27.4303 29.0814 27.2343 29.7732 27.0163L29.8823 26.9816C30.9899 26.627 32.0106 26.2156 32.9271 25.7574C36.244 24.099 37.8947 22.0026 37.8947 20H40C40 23.2296 37.4093 25.8701 33.8686 27.6404C32.5246 28.3124 30.9998 28.8845 29.3378 29.3378C28.5844 29.5433 27.8028 29.7244 26.9971 29.8793L26.9816 29.8823C25.1012 30.2428 23.0899 30.4608 20.9995 30.5137C20.6682 30.5221 20.335 30.5263 20 30.5263Z" fill="white"/>
<path d="M28.0296 25.3294C28.2834 23.6492 28.4211 21.8601 28.4211 20C28.4211 19.6465 28.4161 19.2955 28.4063 18.9474C28.3645 17.4638 28.2352 16.0315 28.0297 14.6706C28.8161 14.8783 29.5583 15.1141 30.2499 15.3736C30.4311 16.861 30.5264 18.4105 30.5264 20C30.5264 20.3529 30.5217 20.7039 30.5124 21.0526C30.4798 22.2746 30.3908 23.4693 30.2499 24.6264C29.5582 24.8859 28.816 25.1217 28.0296 25.3294Z" fill="white"/>
<path d="M28.5805 31.6973C28.2943 32.4635 27.9801 33.1892 27.6404 33.8686C25.8701 37.4093 23.2296 40 20 40V37.8947C22.0026 37.8947 24.099 36.244 25.7574 32.9271C25.8801 32.6817 25.9994 32.4288 26.1152 32.1688C26.957 32.038 27.7801 31.8804 28.5805 31.6973Z" fill="white"/>
<path d="M21.5634 4.68674L23.4342 3.73351C22.3254 2.64705 21.1473 2.10526 20 2.10526V0C22.0604 0 23.8812 1.05451 25.3891 2.73746L27.9433 1.43602L28.0985 9.62669L21.5634 4.68674Z" fill="white"/>
</svg>
